/* XPM */
static char *_8d9e90f39934c72b55f535d4d4b35b8PxKP9xMCWe2ExBx4[] = {
/* columns rows colors chars-per-pixel */
"32 32 4 1 ",
"  c None",
". c #464646",
"X c #B4B4B4",
"o c white",
/* pixels */
"          .....o.....           ",
"          .....o.....           ",
"          .....o.....           ",
"          ...........           ",
"          .....o.....           ",
"          .....o.....           ",
"          .....o.....           ",
"          ...........           ",
"          .....o.....           ",
"          .....o.....           ",
"...............o................",
"................................",
"...............o................",
"...............X................",
"...............o................",
"XXXX...XXXX...X XX..XXXX...XXXX.",
"...............o................",
"...............o................",
"...............o................",
"................................",
"...............o................",
"          .....o.....           ",
"          .....o.....           ",
"          .....o.....           ",
"          ...........           ",
"          ...........           ",
"          .....o.....           ",
"          .....o.....           ",
"          .....o.....           ",
"          ...........           ",
"          .....o.....           ",
"          .....o.....           "
};
