/* XPM */
static char *_740bd4725ab4a4ecba5930fd83e903cnWoeCXDgRVkiEEew[] = {
/* columns rows colors chars-per-pixel */
"32 32 98 2 ",
"   c None",
".  c #435C0A",
"X  c #4D5F13",
"o  c #7B510E",
"O  c #576B1D",
"+  c #696911",
"@  c #716618",
"#  c #78661C",
"$  c #546624",
"%  c #52742E",
"&  c #5C7230",
"*  c #696B29",
"=  c #756823",
"-  c #766924",
";  c #607B3D",
":  c #797B3A",
">  c #894C0A",
",  c #9C5E00",
"<  c #885D16",
"1  c #995816",
"2  c #935B18",
"3  c #976300",
"4  c #80681F",
"5  c #956313",
"6  c #9C7016",
"7  c #A26100",
"8  c #A36900",
"9  c #A36E00",
"0  c #A6660F",
"q  c #A67301",
"w  c #AD7C00",
"e  c #B47704",
"r  c #A66A1C",
"t  c #A66F1D",
"y  c #B9641C",
"u  c #B57F13",
"i  c #B2791B",
"p  c #8A602E",
"a  c #856C29",
"s  c #8E772B",
"d  c #9B742F",
"f  c #947F2E",
"g  c #827D3E",
"h  c #A06C2D",
"j  c #BA6828",
"k  c #BE6D2C",
"l  c #A36F37",
"z  c #B36E34",
"x  c #A47634",
"c  c #C27725",
"v  c #C07825",
"b  c #C77B29",
"n  c #C47937",
"m  c #867240",
"M  c #A17840",
"N  c #4D813F",
"B  c #6B8039",
"V  c #7A8632",
"C  c #548941",
"Z  c #5F9E58",
"A  c #648945",
"S  c #689749",
"D  c #B18408",
"F  c #B4870E",
"G  c #B9801D",
"H  c #978925",
"J  c #84813E",
"K  c #88803E",
"L  c #AF8F28",
"P  c #B7872E",
"I  c #A3843D",
"U  c #B68B37",
"Y  c #A0903C",
"T  c #BC9036",
"R  c #BD903E",
"E  c #C78E23",
"W  c #C39B29",
"Q  c #808145",
"!  c #878B48",
"~  c #988342",
"^  c #A48E4C",
"/  c #B98F4D",
"(  c #AA974C",
")  c #8DA34A",
"_  c #BCA15C",
"`  c #84A168",
"'  c #92A762",
"]  c #91AA69",
"[  c #9FB26C",
"{  c #9DBA78",
"}  c #AEAB66",
"|  c #A8B578",
" . c #C09546",
".. c #AFBE88",
"X. c #9EC783",
"o. c #B8DF9E",
"O. c #C6CE89",
"+. c #CFE9A8",
/* pixels */
"                                                                ",
"                                                                ",
"                                                                ",
"                                                                ",
"                                                                ",
"                                                                ",
"                                                                ",
"                                                                ",
"                                                                ",
"                              ] +.o.                            ",
"                          Z & : * $ N                           ",
"                          C ! ~ ^ J A                           ",
"                            - / x a '                           ",
"                            _ > 1 o O.                          ",
"                            d n k 2 } X.                        ",
"                          V U v b r 4 [                         ",
"                        ) H W 9 q 3 t #                         ",
"                        + L F w D u c < S                       ",
"                        @ T E e 8 7 y h %                       ",
"                        =  .i , G 0 j l ;                       ",
"                        g I R P 6 5 z p `                       ",
"                        | K ( f Y s M m                         ",
"                          { B O . X Q ..                        ",
"                                                                ",
"                                                                ",
"                                                                ",
"                                                                ",
"                                                                ",
"                                                                ",
"                                                                ",
"                                                                ",
"                                                                "
};
