/* XPM */
static char *_baaff3ae830453891cf3e1df2b5220cmO0uN12MLMitZ49N[] = {
/* columns rows colors chars-per-pixel */
"32 32 236 2 ",
"   c #150D06",
".  c #18140A",
"X  c #0C0C14",
"o  c #131419",
"O  c #0C151C",
"+  c #270E04",
"@  c #370B03",
"#  c #291300",
"$  c #261B0D",
"%  c #351D09",
"&  c #251111",
"*  c #332007",
"=  c #362613",
"-  c #20281D",
";  c #1C1E2B",
":  c #171C25",
">  c #0E1C27",
",  c #231D2A",
"<  c #201F24",
"1  c #1C222C",
"2  c #1B2A2A",
"3  c #1B2C34",
"4  c #1B2A39",
"5  c #23232C",
"6  c #282626",
"7  c #3D2522",
"8  c #3C342B",
"9  c #39372B",
"0  c #242A37",
"q  c #263337",
"w  c #3B3D3D",
"e  c #383C3B",
"r  c #480802",
"t  c #4B1906",
"y  c #561606",
"u  c #461F1E",
"i  c #5D1D1B",
"p  c #5B1E13",
"a  c #671A02",
"s  c #621C19",
"d  c #731F03",
"f  c #552203",
"g  c #58360B",
"h  c #44241A",
"j  c #58271B",
"k  c #5D3A18",
"l  c #49290A",
"z  c #682409",
"x  c #732600",
"c  c #732900",
"v  c #792B08",
"b  c #652716",
"n  c #732B17",
"m  c #683717",
"M  c #79381C",
"N  c #79360C",
"B  c #4B1E24",
"V  c #471E24",
"C  c #4B2224",
"Z  c #4E2329",
"A  c #472A27",
"S  c #552826",
"D  c #403226",
"F  c #43332B",
"G  c #453B2C",
"H  c #4B372D",
"J  c #563223",
"K  c #473A38",
"L  c #543230",
"P  c #662A26",
"I  c #663825",
"U  c #79392A",
"Y  c #723D32",
"T  c #783C31",
"R  c #693939",
"E  c #36403C",
"W  c #3B403E",
"Q  c #5A4426",
"!  c #484137",
"~  c #58463A",
"^  c #4D402F",
"/  c #774729",
"(  c #765729",
")  c #68433C",
"_  c #754837",
"`  c #6B5739",
"'  c #7B5832",
"]  c #7E6338",
"[  c #1C2B40",
"{  c #3C3D43",
"}  c #283949",
"|  c #463D44",
" . c #3D4243",
".. c #424444",
"X. c #43454A",
"o. c #444A4B",
"O. c #494C4E",
"+. c #484647",
"@. c #594943",
"#. c #4B514A",
"$. c #5B5346",
"%. c #545455",
"&. c #664842",
"*. c #65574A",
"=. c #6E5B52",
"-. c #784A49",
";. c #766553",
":. c #87371E",
">. c #8F3609",
",. c #A03A0A",
"<. c #833C2C",
"1. c #8A3C23",
"2. c #843D32",
"3. c #99471A",
"4. c #8D4C16",
"5. c #BB5B1A",
"6. c #A7451A",
"7. c #BE611C",
"8. c #884429",
"9. c #934528",
"0. c #865829",
"q. c #824335",
"w. c #884337",
"e. c #954934",
"r. c #985B38",
"t. c #8D5B34",
"y. c #A14523",
"u. c #B65726",
"i. c #AE5A35",
"p. c #A95739",
"a. c #B35433",
"s. c #B25B35",
"d. c #B45C3B",
"f. c #B85A39",
"g. c #A85029",
"h. c #8F6B3A",
"j. c #AC6939",
"k. c #BB6335",
"l. c #BC633C",
"z. c #B6613A",
"x. c #BF7B3A",
"c. c #A46C2F",
"v. c #C25C21",
"b. c #D5712C",
"n. c #C2663C",
"m. c #C46A3C",
"M. c #CC6F3F",
"N. c #CC723D",
"B. c #C9793E",
"V. c #D57A3D",
"C. c #CC7D2E",
"Z. c #88554B",
"A. c #9D5746",
"S. c #824041",
"D. c #B55E40",
"F. c #8C7644",
"G. c #9A6D5B",
"H. c #877350",
"J. c #99795A",
"K. c #9B6A4E",
"L. c #BD6441",
"P. c #AC7548",
"I. c #B87546",
"U. c #AC7C54",
"Y. c #A87859",
"T. c #B27857",
"R. c #A4684E",
"E. c #A97E66",
"W. c #BE7E63",
"Q. c #C36541",
"!. c #CB6D44",
"~. c #C56C46",
"^. c #CB7846",
"/. c #D37544",
"(. c #D77A48",
"). c #CE7A52",
"_. c #ED8418",
"`. c #F58E1B",
"'. c #F8911B",
"]. c #DA8539",
"[. c #CC823B",
"{. c #F58E23",
"}. c #F18628",
"|. c #F99222",
" X c #E28C3A",
".X c #E08A37",
"XX c #F68D31",
"oX c #B48955",
"OX c #9E8863",
"+X c #A78665",
"@X c #B3927C",
"#X c #BEA177",
"$X c #D4844B",
"%X c #D98644",
"&X c #D9944C",
"*X c #C78654",
"=X c #D18653",
"-X c #D79255",
";X c #E38D43",
":X c #E68D4B",
">X c #E5954A",
",X c #E7994A",
"<X c #E79853",
"1X c #E4875C",
"2X c #D9AA5D",
"3X c #EEA354",
"4X c #F2AE59",
"5X c #F9B858",
"6X c #F2A94E",
"7X c #D99868",
"8X c #C7966A",
"9X c #C8A67A",
"0X c #D1AA73",
"qX c #EBA367",
"wX c #EDB465",
"eX c #F7B768",
"rX c #F7B778",
"tX c #EFAD6D",
"yX c #F6C15F",
"uX c #FDC36C",
"iX c #FFCB6D",
"pX c #F9C567",
"aX c #ECC278",
"sX c #F7C579",
"dX c #FCD17D",
"fX c #B89885",
"gX c #B8A18F",
"hX c #D4AA85",
"jX c #D1AF93",
"kX c #F5BF83",
"lX c #DBC49B",
"zX c #FDC986",
"xX c #FBD382",
"cX c #EECD95",
"vX c #FBCE91",
"bX c #FAD793",
/* pixels */
"i.s.s.s.s.s.f.d.i.i.i.d.d.p.a.d.d.i.d.d.a.a.p.D.a.f.f.a.D.i.i.s.",
"z.z.f.f.f.f.f.f.s.z.f.f.d.D.D.d.s.f.d.i.f.L.9.:.Q.a.f.d.f.l.s.s.",
"l.l.l.l.l.L.Q.l.k.n.f.l.l.l.f.f.l.f.l.l.s.L.8.n L.k.n.k.l.l.l.l.",
"m.m.m.m.m.Q.Q.Q.n.m.n.n.n.l.n.m.k.n.n.Q.f.l.e.M I.m.k.m.n.m.n.Q.",
"N.N.N.N.N.M.!.!.M.M./.!.!.!.!.!.!.^.!.!.n.Q.e.:.).m.N.M.!.!.!.!.",
"/.V.V.V.V.V././.(.u.u.u.u.5.5.7.5.5.v.v.5.u.1.9.j.^.N.N.^.^.(./.",
"(.(.(.V.V.V.(.(./.6.,.b.}._._._._._._._.}.b.y b 9.-Xx.&X[.%X$XB.",
":X;X%X%X].].%X$X(.g.>.V.XX{.|.`.'.`.|.{.{.].r b r.rXeXuX>X[.%X<X",
"eX3X%X;X X>X>X<X1X3.a ^.;X X X]..X X X X;XB.r P M qX4X,X>X,X<X<X",
"4X6X>X%X%X$X$X).~.1.a z x x c c c c x x c a r P n ).^.$X$X%X,X,X",
"6X6X<Xg.1.2.w.w.2.2.q.2.2.<.U q.8.<.<.q.U q.q.S.w.w.<.e.M N 4X5X",
"5X4XrXr.t Z B B C Z Z C B Z Z C C C Z C C S u B V V Z S @ K.wX5X",
"eXwXvXt.& 5 ; 1 ; 1 5 ; , , 5 ; ; 5 1 ; 5 : 1 1 1 1 ; 5 . J.xXpX",
"3XsXzXh.. 2 2 2 3 q 3 3 0 0 0 4 4 4 4 4 q 3 3 3 3 3 2 -   F.xX5X",
"4.kXzXoXg Q l = 6 6 5 0 , 5 5 5 5 , 5 5 5 5 1 0 6 = * ( h.2XpXpX",
"t r.7X4.8XcX0X9X;.  X X $ = % % * % = * = . o X = #X8XsXdXpXyXiX",
"j p n n f 8XvXvXlX$ O . 9XaXaXzXaXaXaXaXcXH.X X ` bXdXuXpXyXpX5X",
"j i s P b f *X0.H.! > o oXdXuXuXiXiXiXpXdXF.6 6 ( aXc.sXuXuXuXC.",
"U s s i P j y j F e 4 : l 7XzX&X$XtXeXuXxXOX8 = ' oXm 8.zXzXN.6.",
"U U b i S -.-.C K e } ; C z I.3.>.9.c.vXrX( ;.$.j / J t 4.=Xy.y.",
"T p i P A @.~ F 8 e } : ) q.<.9.e.p.v e.R.I *.$.h u & L U d 9.3.",
"Y t y j J ` H 7 ^ W q 3 =.G.Z.I n e.A.<.b I ~ K 7 K | A A.:.:.v ",
"j @ b 1.t.oXb J ~ 9 q q %.~ =.J y e.8.r.M m ) L h F K F U 1.:.a ",
"_ I T.7X3.=Xy T jXG q q #.$.*.A I K.r.8X9XK._ R ) =.! $.G.W.A.q.",
"/ / j.^.4.*Xf h fX^ 0 q @.) -.j I jXhXhXjXJ.Y Y &.@.o %.gX@X@XfX",
"r.T.-X<Xx.j.t % J.Q D 7 Z.U U b @ k g g l k 8.U +   & . # # # # ",
"7X7XtXqXI.t./ m 0.T.T.e.A.p.p.r.m ' ( 0.0.j.).I.m I t./ t.' ' ] ",
"U.U.P.P.U.Y.J.+XY.U.Y.T.Y.T.U.U.+X+X+X+X+XU.P.P.E.E.Y.+X+X+XOX+X",
"~ H F F F F F F D G D F K F D G D F 9 9 8 F H F K 8 F G 9 9 9 9 ",
"%.X. .X. .X.+.......o. . . .o. ..... .o.O... .X. .X. . .w ..X.o.",
"%.O.o.O.E  .o.+.+.+.o. .w  ...O... .o.O.X.X.O.+.W o.O.......%.| ",
"+.w W E  . .W w K K  .e  ...w w { {  ...{ { { w ..E e W w | | | "
};
