/* XPM */
static char *_2971d5f560c499ca8830f1046d21667qQduoJwARkjTrRYI[] = {
/* columns rows colors chars-per-pixel */
"32 32 159 2 ",
"   c None",
".  c #0D0102",
"X  c #150505",
"o  c #1B0101",
"O  c #130708",
"+  c #10090A",
"@  c #1D0B0C",
"#  c #150F10",
"$  c #240101",
"%  c #2B0101",
"&  c #270F0F",
"*  c #310101",
"=  c #3B0101",
"-  c #2F1110",
";  c #282629",
":  c #2B2A2C",
">  c #3C3939",
",  c #3A3233",
"<  c #450100",
"1  c #540403",
"2  c #5B0A0A",
"3  c #4C1807",
"4  c #5B120A",
"5  c #4D191C",
"6  c #6B0101",
"7  c #720201",
"8  c #7B0100",
"9  c #761B1D",
"0  c #552E32",
"q  c #662A2E",
"w  c #6C272B",
"e  c #7C2628",
"r  c #6F2E31",
"t  c #632E31",
"y  c #6C3034",
"u  c #68393D",
"i  c #7B363A",
"p  c #3F4D54",
"a  c #4F4545",
"s  c #44464B",
"d  c #484648",
"f  c #42494F",
"g  c #4B4A4C",
"h  c #5B4147",
"j  c #58454A",
"k  c #414B52",
"l  c #534F55",
"z  c #4D545B",
"x  c #4C585F",
"c  c #50545B",
"v  c #59555C",
"b  c #674141",
"n  c #604B50",
"m  c #704F54",
"M  c #775F5F",
"N  c #4D5B62",
"B  c #535B62",
"V  c #715F69",
"C  c #576067",
"Z  c #59646B",
"A  c #6C6D6E",
"S  c #656A70",
"D  c #6E6F71",
"F  c #716D71",
"G  c #746273",
"H  c #6B767E",
"J  c #7E7D7F",
"K  c #870201",
"L  c #8C0100",
"P  c #920201",
"I  c #9C0101",
"U  c #900B0A",
"Y  c #810F10",
"T  c #9F1819",
"R  c #991516",
"E  c #A50201",
"W  c #AA0101",
"Q  c #A10909",
"!  c #B30201",
"~  c #BB0201",
"^  c #BA0D0C",
"/  c #BD100F",
"(  c #A41617",
")  c #A41B1C",
"_  c #AD1B1B",
"`  c #B21414",
"'  c #8D262A",
"]  c #922022",
"[  c #9B2929",
"{  c #942B2C",
"}  c #813F2B",
"|  c #823133",
" . c #B82322",
".. c #C30201",
"X. c #CD0201",
"o. c #CA0907",
"O. c #D60302",
"+. c #DA0302",
"@. c #D80F09",
"#. c #D50D0C",
"$. c #C7100F",
"%. c #D2100E",
"&. c #C71615",
"*. c #D71B19",
"=. c #EA0000",
"-. c #E40504",
";. c #E01110",
":. c #E81917",
">. c #DF2827",
",. c #D42827",
"<. c #E52827",
"1. c #E73735",
"2. c #E53C3B",
"3. c #BE491C",
"4. c #83464A",
"5. c #8C4D50",
"6. c #977679",
"7. c #DE4847",
"8. c #D74949",
"9. c #DC4F4E",
"0. c #D15D5C",
"q. c #DE5D52",
"w. c #EA5756",
"e. c #E1605F",
"r. c #EA6665",
"t. c #EC6866",
"y. c #F16463",
"u. c #E8706F",
"i. c #E57A7A",
"p. c #7D8387",
"a. c #848386",
"s. c #8F8E91",
"d. c #AF858D",
"f. c #B29BA8",
"g. c #B1AFB2",
"h. c #B3B1B4",
"j. c #C08F97",
"k. c #CA9091",
"l. c #CE9B9B",
"z. c #ED8483",
"x. c #EE8B8A",
"c. c #EF9493",
"v. c #E79999",
"b. c #CDAFB0",
"n. c #ECA4A4",
"m. c #E1AEAE",
"M. c #F1A8A7",
"N. c #F3ABAA",
"B. c #EDB8B7",
"V. c #F1B7B7",
"C. c #F5BDBC",
"Z. c #EBCBCB",
"A. c #E7DBDB",
"S. c #E6E3E4",
"D. c #F6E8E7",
"F. c #F6EEEE",
"G. c #F0E2E2",
"H. c #F7FDFD",
"J. c #F8F9F9",
/* pixels */
"                                                                ",
"                                                                ",
"                                                                ",
"                                                                ",
"                                                                ",
"                                                                ",
"                                                                ",
"                                                                ",
"                                                                ",
"                                                                ",
"                                              K P L             ",
"                    L 8   6 L L E ! ^ ) 9 Y E ~ ..X.!           ",
"                  6 U 9 0 i 2.r.z.x.C.b.x f q Q / $./           ",
"            I ! ..~ u B N H S.J.H.F.D.A.S k f 6.Z.Z.Z.f.        ",
"        ~ *.7.i.v.0.i N B Z k.t.r.2.<.<.| f p p.G.Z.m.j.        ",
"    ' 8.c.V.n.i.e.,.] B B c _ O.^ ` ) T ..R q r  .&.X.!         ",
"    d.M.w.:.+.O.#.,._ v C i e n l z x h ! ....! ! ~ X.o.        ",
"    ' ;.-.1.u.v.n.B.0.m 4.( l N N N z w I E W W W ! ! 3.        ",
"    2 9.N.N.z.w.>.*.%.{ ` e j h y t i [ 7 7 8 7 6 6 1 3 %       ",
"    V l.y.:.=.=.+.X.~ K E 6 1 1 1 < b M - % & a , X % %         ",
"    G 5.q.@...W 6 < * % = * % * % % % % o X D g.s.# o           ",
"      5 } 4 = % > A g X % % % $ $ $ $ o o O g F d               ",
"        % $ $ @ a.h.J + o o o o                                 ",
"              . : d ;                                           ",
"                                                                ",
"                                                                ",
"                                                                ",
"                                                                ",
"                                                                ",
"                                                                ",
"                                                                ",
"                                                                "
};
