/* XPM */
static char *df4edacac519432be7fb71bfa2b19e3enH88xnJH56ZcYruQ[] = {
/* columns rows colors chars-per-pixel */
"32 32 134 2 ",
"   c None",
".  c #2E472E",
"X  c #374636",
"o  c #4D574C",
"O  c #565654",
"+  c #555D55",
"@  c #546253",
"#  c #576957",
"$  c #60685F",
"%  c #596C6C",
"&  c #5D7271",
"*  c #676664",
"=  c #666D67",
"-  c #616D6C",
";  c #6E6F6C",
":  c #647563",
">  c #6A7A6A",
",  c #707D6F",
"<  c #617676",
"1  c #6B7775",
"2  c #657877",
"3  c #6A7876",
"4  c #617778",
"5  c #667978",
"6  c #6A7B79",
"7  c #757471",
"8  c #737E72",
"9  c #7A7976",
"0  c #727D7B",
"q  c #7D7D7A",
"w  c #6D807F",
"e  c #778376",
"r  c #76817D",
"t  c #7C847E",
"y  c #80807C",
"u  c #80897F",
"i  c #728483",
"p  c #7C8582",
"a  c #748887",
"s  c #7D8D8B",
"d  c #7B9191",
"f  c #838682",
"g  c #888784",
"h  c #858B84",
"j  c #848D89",
"k  c #8D8D8A",
"l  c #889087",
"z  c #85918D",
"x  c #8B918B",
"c  c #92928E",
"v  c #8F9591",
"b  c #8F9893",
"n  c #8D9C99",
"m  c #969592",
"M  c #989793",
"N  c #959A95",
"B  c #989895",
"V  c #969D99",
"C  c #9A9D9A",
"Z  c #97A09C",
"A  c #9BA19D",
"S  c #A0A19F",
"D  c #86A3A3",
"F  c #8BA5A4",
"G  c #8BA9A9",
"H  c #94A4A1",
"J  c #9AA6A2",
"K  c #9BA8A3",
"L  c #93ADAC",
"P  c #9DAEAB",
"I  c #9CB1AF",
"U  c #9BB2B1",
"Y  c #A5A8A4",
"T  c #A2AEAA",
"R  c #AEAFAD",
"E  c #B0AFAB",
"W  c #A4B1AE",
"Q  c #ACB2AF",
"!  c #B3B4AF",
"~  c #A3B4B1",
"^  c #AAB6B2",
"/  c #A6B9B6",
"(  c #ADB9B5",
")  c #B5B6B1",
"_  c #B2BAB5",
"`  c #BCBBB6",
"'  c #B3BDB9",
"]  c #BFBEB9",
"[  c #D69595",
"{  c #D89A9A",
"}  c #BBC2BD",
"|  c #B6C1C0",
" . c #BDC5C0",
".. c #BEC8C4",
"X. c #C2C6C1",
"o. c #C4CAC4",
"O. c #CACBC6",
"+. c #C3CDC9",
"@. c #CCCEC9",
"#. c #C7D0CB",
"$. c #CDD2CD",
"%. c #D3D3CE",
"&. c #CDD5D1",
"*. c #D5D5D1",
"=. c #D8D7D2",
"-. c #D4DAD5",
";. c #DAD9D4",
":. c #D9DFD9",
">. c #E8CECE",
",. c #E9D0D0",
"<. c #DBE0DA",
"1. c #DCE1DB",
"2. c #DDE1DB",
"3. c #DDE2DC",
"4. c #DEE3DD",
"5. c #DFE3DD",
"6. c #DFE4DD",
"7. c #DFE4DE",
"8. c #EDE4E3",
"9. c #E6EAEA",
"0. c #E9EAE9",
"q. c #E9EBEB",
"w. c #EAEBEA",
"e. c #ECEDED",
"r. c #EEEDED",
"t. c #EEEDEE",
"y. c #F0E8E7",
"u. c #F2ECEC",
"i. c #F3EEEE",
"p. c #F1F1F1",
"a. c #F3F5F5",
"s. c #F5F4F4",
"d. c gray96",
"f. c #F6F5F5",
/* pixels */
"                                                                ",
"                  ~ | V K W P ' ^ K                             ",
"              ( &.9.a.q.@.) } @.( K n                           ",
"            } q.d.i.>.,.i.e.*.Q $. .T H                         ",
"            ' e.d.>.{ [ >.d.p.S O.7.-.} K n                     ",
"            b ' -.q.8.y.e.*.Q ) $.-. .( } +.                    ",
"            0 v J ( ..X.R ! o.$.' ( ..&.-.-.W H                 ",
"            & 6 p v V Z o.+.' ' +.:.7.#.} $.-...^               ",
"            & < < 2 r z J ( #.*._ 2.4.%.o.%.4.4.$.Q             ",
"            & < < < < < s I +.X.Y <.<.4.4.7.4.:.o.T             ",
"            & < < < < < a G P _ } 2.4.4.4.-.o._ ' ~             ",
"            & < < < < < a D z Z T } &.*.} ( ( ( U D             ",
"            & < < < < & a d j C C V J Q _ / L G G D             ",
"            & < < < < < i w j C C C C P G G G G G D             ",
"            & < < < < < 2 2 j C C C C F G G G G G D             ",
"            & < < < < < 2 2 j C C C C F G G G G G D             ",
"            & < < < < < 2 2 j x x C C F G G G G G D             ",
"            & < < < < < 2 2 j h X > V F G G G G G D             ",
"            & < < < < < 2 2 j B + u C F G G G G G D             ",
"            & < < < < < 2 2 j C C C C F G G G G G D             ",
"            % < < < < < 2 2 j $ # l C F G G G G G D             ",
"          ; < < < < < < 2 2 j + . : B F G G G G G D             ",
"      q c m 6 < < < < < 2 2 j B t 8 B F G G G G G L             ",
"  9 c B m m 6 & < < < < 2 2 j h m C C F G G G G G U *.*.        ",
"k m m m m m 0 & < < < < 2 2 j o , A C F G G G G G I %.;.=.*.    ",
"  7 k m M m k r 2 < < < 2 2 p = @ e V F G G G G G I %.*.=.=.*.*.",
"      * g m B m k t 6 < 2 2 2 < - r B F G G G G I X.*.;.=.*.*.  ",
"          O y c M m x f 0 0 p 1 & 4 i D G G ~ } %.=.=.*.%.      ",
"                7 k m B m c m f 0 3 6 D ( o.%.=.=.*.            ",
"                    q B E ] ] ` ) ) ! X.*.;.=.%.                ",
"                          ! @.=.;.;.;.=.=.%.                    ",
"                              O.%.*.%.%.                        "
};
